<?xml version="1.0" encoding="UTF-8"?>
<svg id="Layer_1" xmlns="http://www.w3.org/2000/svg" version="1.1" viewBox="0 0 566.9 566.9">
  <!-- Generator: Adobe Illustrator 30.3.0, SVG Export Plug-In . SVG Version: 2.1.3 Build 182)  -->
  <defs>
    <style>
      .st0 {
        fill: #b1ac7e;
        fill-rule: evenodd;
      }
    </style>
  </defs>
  <path class="st0" d="M200.3,214.3c-1.9-2.7-7.1-1.4-10.2-1.4-3.7,0-7.5-.3-11.1-.8-17.6-2.3-36.2-10.9-44.9-25-6.5-10.6-8.8-24.1-5.1-38.1,9.6-36.2,53.1-50.6,90.9-30.2,18.1,9.8,33,21,49.5,32.3,2.1,1.5,5.3,3.5,6.4,5.6-.5,2.3-7.4,14.7-9.1,18.2-9.3,18.7-16.8,37.9-23.9,57.9-4.8,13.2-9.4,26.8-14.6,39.6-4,9.7-7.8,19.3-12.2,28.7l-4.9,9c-.1,0-.3-.3-.3-.2l-8.7-6.2c-9.7-6.5-19.8-11.1-31.4-14.7-24.3-7.6-53.6-4.2-75.1,9.2-21,13.2-34.6,35.8-26.5,61.9,5,16,15,24.9,30.8,30.6,27.8,10,60.3,2.1,82.1-16.5l16.2-14.7c5.8-6.6,12.3-13.8,17.1-21.5.5-.8.9-1.5,1.5-2.3l1.2-1.7c.5-.6.3-.4.8-.8.9,2.7,6,5.9,8.4,7.8,1.5,1.2,8.1,6.7,8.6,8.2,1.2,3.5-9.3,19.1-11.1,22-8.9,14.2-18.4,27.1-28.4,37.7-4.6,4.9-9.5,9.6-14.7,13.8-7.3,5.8-13.6,10.1-23,14.5-7.3,3.5-17.3,6.2-26.4,6.4-11.6.3-25.6-5-28.8-1.1-3.1,3.8,1.7,9.8,3.4,11.3,9.9,9.4,27.2,8.9,39.5,5.3,14.6-4.3,25.3-12.3,36.1-21.4,20.5-17.2,40.9-47.8,53.3-71.4,7.2-13.6,3.8-14.8,23.6,5.9,38.3,39.8,85.4,88.1,143.7,92.2,14.7,1,26.3-.5,37.6-6.8,8.3-4.6,15.8-10.9,21-18.5,6.5-9.3-13.9-.4-16.7.5-6.3,1.9-12.4,3.2-19.3,3.9-26.7,2.8-51.4-5-73.9-17.3-17.7-9.6-37.4-26.4-53.5-39.3l-40.4-34.7c-1.1-1.1-2-1.6-3.1-2.6-1.3-1.1-1.8-1.7-3.1-2.6l-20.9-20c-2.1-2.1-4.1-3.7-6-6.1,3.5-7.9,8.6-16.2,12.5-23.9,4.1-8.1,8.5-15.9,12.5-24.1,8-16.1,15-33.8,22-51.3,6.9-17.3,14.5-34.5,22.3-51,3.1-6.5,5-3.6,12.9-2.6,5.8.7,11.8.9,17.6.2,10.3-1.1,19.9-4.2,27.9-8.6,13.7-7.7,32.9-24,29.4-42.2-2.2-11.1-14.5-13-24-12.4-20.6,1.5-54.5,22.6-55.2,27.1-.4,2.4,2.2,4.1,3.5,5.3,8.1,8.1,8,7.2,14.7-.9l8.6-9.5c7.6-7.5,16.1-15.4,28.9-17.2,28.9-4.1,23.9,27.4-6.5,45.3-14.4,8.4-28.4,10.1-44.3,4.7-13.9-4.7-22.8-12.7-33.9-20.8-18-13.2-34.4-26.1-58.7-33.1-38.6-11.2-84.3,3.9-91.4,47-6.7,40.5,24.8,63.1,61.5,64.9,3,.1,6.1,0,9-.3,1.3-.1,2.8-.4,3.9-.7,1.9-.6,2.1-.6,2.5-2.5M320.5,282.1c-1.5-2.2-3.3-42.7-3.6-48.7-1-16.2-3-32.2-4.1-48.3-1.2-.5-2.5-1.1-4.3-1.1-3.7,8.6-9.8,26-13.8,36.2-4.8,12.3-9.8,23.3-15.1,34.9-8.7,19.3-18.9,38.9-28,59.1-1.8,3.9-2.3,6.8,2,8.4,2.6-1.5,9.7-19,11-21.6l30-65.2c.7-1,.2-.7,1.5-1.2,1.4,6.2,1.6,19.5,2.2,26.8.9,12.2,5.7,79.7,6.7,81.9,1.6-.3.6.8,3.1-2.8l7.2-11.3c3.1-4.8,6.5-10.1,9.4-15.3,6-10.4,12.7-20.4,19-30.4,9.7-15.2,20-29.6,29-45.2,3.1-5.3,6-10.4,8.9-15.8,4.7-8.7,4-7,13.9-10.4,6.2-2.1,11.9-4.4,17.8-7,25.8-11.1,71.4-38,83.6-64.8,6.9-15.1,2.1-27.5-10.1-32.8-20.6-8.9-47,6.9-62.6,19.6-2.2,1.8-4.9,4-6.6,5.8-8.6,9.4-14.9,14.2-23.4,26.1-17.3,24.1-22.7,34.5-37.5,60.9l-26.7,47.5c-1.6,2.9-7.5,13.8-9.7,14.6ZM389.4,209.9c.4-3,14.9-28.7,17.4-32.9,11-18.8,26.9-44,43.6-56.8,8-6.1,25.4-15.5,36-5.4,11.1,10.5-1.8,31.2-8.5,40l-5.8,6.6c-1.1,1.3-1.8,1.6-3.1,3.1l-6.5,5.9c-12.7,10.1-22.2,16.7-37.8,24.9-5.9,3.1-28.8,14.3-35.3,14.5ZM485.3,366.5c0-12-3-28.7-13.6-34.4-7.8-4.2-17.1,0-9.2,6.4,1.8,1.5,3.4,2.5,5.1,3.9,15.6,12.9,14.6,37.3,6.3,52.6l-5,7.8c-4.9,6.5-16.1,13.7-23.8,16.7-13.5,5.3-30.1,4.7-42.9-2.7-2.1-1.2-3.7-2.3-5.4-3.7-2.7-2.1-6.9-6.4-8.7-9-23-33-11-84.5.4-118.3l15.9-44.5c1.3-3.7,5.2-11.7,5.4-15.3-1.3.6-.2,0-1.1.6-7.8,5.1-4.3,4.4-17.2,10.5-10.6,5.1-11.4.5-13.7,7.7-.6,1.9-1.4,3.8-2,5.6-5,14.5-10.2,28.7-15,43.5-10.6,32.6-23.6,73.9-1.1,105.2,2.2,3,4.5,5.4,6.6,8.1,3,3.7,10.8,10,16.1,12.9,45.4,25.1,102.7-.7,102.6-53.7ZM205.2,324.1c-1.5,3.9-7.2,12.4-9.6,16.1-3.1,4.8-7.2,10.7-10.5,14.7-7.8,9.1-15.5,18.3-25.8,24.6-11,6.8-24.7,11.6-40.4,9.2-14.5-2.2-25.4-10.2-30.5-20-17.3-33.6,30.9-71,81.8-59.9,14.8,3.2,24,9.1,35.1,15.2Z"/>
</svg>